<?xml version="1.0" encoding="UTF-8" standalone="no"?>
<svg
   xmlns:dc="http://purl.org/dc/elements/1.1/"
   xmlns:cc="http://creativecommons.org/ns#"
   xmlns:rdf="http://www.w3.org/1999/02/22-rdf-syntax-ns#"
   xmlns:svg="http://www.w3.org/2000/svg"
   xmlns="http://www.w3.org/2000/svg"
   viewBox="0 0 2482.7068 2866.7466"
   height="2866.7466"
   width="2482.7068"
   xml:space="preserve"
   id="svg2"
   version="1.1"><metadata
     id="metadata8"><rdf:RDF><cc:Work
         rdf:about=""><dc:format>image/svg+xml</dc:format><dc:type
           rdf:resource="http://purl.org/dc/dcmitype/StillImage" /></cc:Work></rdf:RDF></metadata><defs
     id="defs6"><radialGradient
       id="radialGradient28"
       spreadMethod="pad"
       gradientTransform="matrix(1707.087,0,0,-1707.087,1731.2798,2030.0082)"
       gradientUnits="userSpaceOnUse"
       r="1"
       cy="0"
       cx="0"
       fy="0"
       fx="0"><stop
         id="stop24"
         offset="0"
         style="stop-opacity:1;stop-color:#4297b1" /><stop
         id="stop26"
         offset="1"
         style="stop-opacity:1;stop-color:#2c7295" /></radialGradient></defs><g
     transform="matrix(1.3333333,0,0,-1.3333333,0,2866.7467)"
     id="g10"><g
       id="g12"><g
         id="g14"><g
           id="g20"><g
             id="g22"><path
               id="path30"
               style="fill:url(#radialGradient28);stroke:none"
               d="M 931.017,2150.057 465.581,1881.292 0,1612.562 V 1075.03 947.665 768.395 768.036 H 399.181 V 947.665 H 179.63 v 561.182 L 931.017,1942.668 1434.68,1651.896 1315.001,1582.765 931.017,1804.41 299.383,1439.72 V 1336.507 L 931.017,971.817 1293.706,762.392 931.017,553.003 568.327,762.429 162.626,528.208 89.459,485.908 465.581,268.768 931.017,0 l 465.507,268.768 465.508,268.767 v 844.131 h -179.627 v -0.291 H 1462.85 v -179.628 h 219.555 V 641.209 L 931.017,207.389 427.424,498.164 547.105,567.292 931.017,345.65 1562.721,710.341 V 813.55 l -631.704,364.69 -362.69,209.389 362.69,209.425 362.689,-209.425 405.701,234.22 73.24,42.3 -376.123,217.143 z" /></g></g></g></g></g></svg>